<svg version="1.1" viewBox="0.0 0.0 954.1128608923884 720.0" fill="none" stroke="none" stroke-linecap="square" stroke-miterlimit="10" xmlns:xlink="http://www.w3.org/1999/xlink" xmlns="http://www.w3.org/2000/svg"><clipPath id="p.0"><path d="m0 0l954.11285 0l0 720.0l-954.11285 0l0 -720.0z" clip-rule="nonzero"/></clipPath><g clip-path="url(#p.0)"><path fill="#000000" fill-opacity="0.0" d="m0 0l954.11285 0l0 720.0l-954.11285 0z" fill-rule="evenodd"/><path fill="#00ffff" d="m379.0971 281.3832l25.086609 25.871399l16.934387 -11.288727z" fill-rule="evenodd"/><path stroke="#000000" stroke-width="1.0" stroke-linejoin="round" stroke-linecap="butt" d="m379.0971 281.3832l25.086609 25.871399l16.934387 -11.288727z" fill-rule="evenodd"/><path fill="#000000" d="m379.2546 308.66666l24.45929 -1.0997314l-15.209961 -15.522308z" fill-rule="evenodd"/><path stroke="#000000" stroke-width="1.0" stroke-linejoin="round" stroke-linecap="butt" d="m379.2546 308.66666l24.45929 -1.0997314l-15.209961 -15.522308z" fill-rule="evenodd"/><path fill="#ffffff" d="m388.50394 291.73227l-24.771667 -2.8241272l14.267731 20.228333z" fill-rule="evenodd"/><path stroke="#000000" stroke-width="1.0" stroke-linejoin="round" stroke-linecap="butt" d="m388.50394 291.73227l-24.771667 -2.8241272l14.267731 20.228333z" fill-rule="evenodd"/><path fill="#00ff00" d="m363.41733 287.9685l15.05249 -6.5852966l9.564301 10.034119z" fill-rule="evenodd"/><path stroke="#000000" stroke-width="1.0" stroke-linejoin="round" stroke-linecap="butt" d="m363.41733 287.9685l15.05249 -6.5852966l9.564301 10.034119z" fill-rule="evenodd"/><path fill="#666666" d="m362.79004 289.0656l-6.270355 10.19162l13.797913 -0.62731934z" fill-rule="evenodd"/><path stroke="#000000" stroke-width="1.0" stroke-linejoin="round" stroke-linecap="butt" d="m362.79004 289.0656l-6.270355 10.19162l13.797913 -0.62731934z" fill-rule="evenodd"/><path fill="#999999" d="m356.2047 300.19946l1.4120789 11.601074l8.152252 -11.916016z" fill-rule="evenodd"/><path stroke="#000000" stroke-width="1.0" stroke-linejoin="round" stroke-linecap="butt" d="m356.2047 300.19946l1.4120789 11.601074l8.152252 -11.916016z" fill-rule="evenodd"/><path fill="#999999" d="m371.10236 300.19946l-5.6456604 9.564331l12.385834 -0.31497192z" fill-rule="evenodd"/><path stroke="#000000" stroke-width="1.0" stroke-linejoin="round" stroke-linecap="butt" d="m371.10236 300.19946l-5.6456604 9.564331l12.385834 -0.31497192z" fill-rule="evenodd"/><path fill="#ff6f00" d="m379.0971 309.6063l31.51706 23.519684l-5.6456604 -25.086609z" fill-rule="evenodd"/><path stroke="#000000" stroke-width="1.0" stroke-linejoin="round" stroke-linecap="butt" d="m379.0971 309.6063l31.51706 23.519684l-5.6456604 -25.086609z" fill-rule="evenodd"/><path fill="#ff9223" d="m405.3609 306.31497l22.892395 28.53543l-17.874023 -3.2913513z" fill-rule="evenodd"/><path stroke="#000000" stroke-width="1.0" stroke-linejoin="round" stroke-linecap="butt" d="m405.3609 306.31497l22.892395 28.53543l-17.874023 -3.2913513z" fill-rule="evenodd"/><path fill="#ff6f00" d="m421.58792 296.12073l2.0393677 6.742798l5.330719 32.614166l-23.519684 -28.850403z" fill-rule="evenodd"/><path stroke="#000000" stroke-width="1.0" stroke-linejoin="round" stroke-linecap="butt" d="m421.58792 296.12073l2.0393677 6.742798l5.330719 32.614166l-23.519684 -28.850403z" fill-rule="evenodd"/><path fill="#ff9223" d="m421.58792 295.3386l27.283478 -27.595825l-19.59842 67.107635z" fill-rule="evenodd"/><path stroke="#000000" stroke-width="1.0" stroke-linejoin="round" stroke-linecap="butt" d="m421.58792 295.3386l27.283478 -27.595825l-19.59842 67.107635z" fill-rule="evenodd"/><path fill="#f6b26b" d="m410.29922 332.9685l16.934357 25.713898l1.7244263 -23.047241z" fill-rule="evenodd"/><path stroke="#000000" stroke-width="1.0" stroke-linejoin="round" stroke-linecap="butt" d="m410.29922 332.9685l16.934357 25.713898l1.7244263 -23.047241z" fill-rule="evenodd"/><path fill="#f6b26b" d="m429.90027 335.79004l16.149597 -21.165375l19.910767 27.280853z" fill-rule="evenodd"/><path stroke="#000000" stroke-width="1.0" stroke-linejoin="round" stroke-linecap="butt" d="m429.90027 335.79004l16.149597 -21.165375l19.910767 27.280853z" fill-rule="evenodd"/><path fill="#00ff00" d="m429.74277 335.79004l76.671936 -102.69818l-56.446198 33.39633z" fill-rule="evenodd"/><path stroke="#000000" stroke-width="1.0" stroke-linejoin="round" stroke-linecap="butt" d="m429.74277 335.79004l76.671936 -102.69818l-56.446198 33.39633z" fill-rule="evenodd"/><path fill="#ff6f00" d="m427.8609 360.09448l37.160095 -17.404205l-35.748016 -6.7427673z" fill-rule="evenodd"/><path stroke="#000000" stroke-width="1.0" stroke-linejoin="round" stroke-linecap="butt" d="m427.8609 360.09448l37.160095 -17.404205l-35.748016 -6.7427673z" fill-rule="evenodd"/><path fill="#f6b26b" d="m428.64566 360.5643l9.564301 22.422577l27.123383 -39.984253z" fill-rule="evenodd"/><path stroke="#000000" stroke-width="1.0" stroke-linejoin="round" stroke-linecap="butt" d="m428.64566 360.5643l9.564301 22.422577l27.123383 -39.984253z" fill-rule="evenodd"/><path fill="#ffff00" d="m466.58792 341.27823l40.92389 -108.50133l-61.934387 81.84776z" fill-rule="evenodd"/><path stroke="#000000" stroke-width="1.0" stroke-linejoin="round" stroke-linecap="butt" d="m466.58792 341.27823l40.92389 -108.50133l-61.934387 81.84776z" fill-rule="evenodd"/><path fill="#a2ff79" d="m466.2756 342.063l110.94748 -38.414703l-56.131226 -6.5852966l-49.548553 30.574799z" fill-rule="evenodd"/><path stroke="#000000" stroke-width="1.0" stroke-linejoin="round" stroke-linecap="butt" d="m466.2756 342.063l110.94748 -38.414703l-56.131226 -6.5852966l-49.548553 30.574799z" fill-rule="evenodd"/><path fill="#6aa84f" d="m471.85828 327.48032l124.18109 -77.92651l-54.56433 3.2939606z" fill-rule="evenodd"/><path stroke="#000000" stroke-width="1.0" stroke-linejoin="round" stroke-linecap="butt" d="m471.85828 327.48032l124.18109 -77.92651l-54.56433 3.2939606z" fill-rule="evenodd"/><path fill="#38761d" d="m472.01312 327.32285l108.65881 -116.02626l-72.753296 20.695541z" fill-rule="evenodd"/><path stroke="#000000" stroke-width="1.0" stroke-linejoin="round" stroke-linecap="butt" d="m472.01312 327.32285l108.65881 -116.02626l-72.753296 20.695541z" fill-rule="evenodd"/><path fill="#6d9eeb" d="m465.74277 343.1601l4.3884583 25.40158l-31.826752 14.580048z" fill-rule="evenodd"/><path stroke="#000000" stroke-width="1.0" stroke-linejoin="round" stroke-linecap="butt" d="m465.74277 343.1601l4.3884583 25.40158l-31.826752 14.580048z" fill-rule="evenodd"/><path fill="#0000ff" d="m438.30447 383.61417l34.65091 59.11023l-2.1968384 -73.85037z" fill-rule="evenodd"/><path stroke="#000000" stroke-width="1.0" stroke-linejoin="round" stroke-linecap="butt" d="m438.30447 383.61417l34.65091 59.11023l-2.1968384 -73.85037z" fill-rule="evenodd"/><path fill="#6d9eeb" d="m438.14697 383.29922l-24.45932 38.572174l29.16275 -29.165375z" fill-rule="evenodd"/><path stroke="#000000" stroke-width="1.0" stroke-linejoin="round" stroke-linecap="butt" d="m438.14697 383.29922l-24.45932 38.572174l29.16275 -29.165375z" fill-rule="evenodd"/><path fill="#4a86e8" d="m443.4777 393.17847l6.7427673 11.4461975l-23.207336 53.467194z" fill-rule="evenodd"/><path stroke="#000000" stroke-width="1.0" stroke-linejoin="round" stroke-linecap="butt" d="m443.4777 393.17847l6.7427673 11.4461975l-23.207336 53.467194z" fill-rule="evenodd"/><path fill="#4a86e8" d="m450.69028 405.09448l7.3700867 12.855652l-8.312347 62.404205z" fill-rule="evenodd"/><path stroke="#000000" stroke-width="1.0" stroke-linejoin="round" stroke-linecap="butt" d="m450.69028 405.09448l7.3700867 12.855652l-8.312347 62.404205z" fill-rule="evenodd"/><path fill="#4a86e8" d="m458.53018 418.7349l9.094482 15.052521l-1.881897 93.60626z" fill-rule="evenodd"/><path stroke="#000000" stroke-width="1.0" stroke-linejoin="round" stroke-linecap="butt" d="m458.53018 418.7349l9.094482 15.052521l-1.881897 93.60626z" fill-rule="evenodd"/><path fill="#4a86e8" d="m468.40683 434.57217l4.860901 8.779541l14.425171 105.67978z" fill-rule="evenodd"/><path stroke="#000000" stroke-width="1.0" stroke-linejoin="round" stroke-linecap="butt" d="m468.40683 434.57217l4.860901 8.779541l14.425171 105.67978z" fill-rule="evenodd"/><path fill="#6d9eeb" d="m503.53018 428.14172l12.385834 23.989502l10.34906 -10.191589z" fill-rule="evenodd"/><path stroke="#000000" stroke-width="1.0" stroke-linejoin="round" stroke-linecap="butt" d="m503.53018 428.14172l12.385834 23.989502l10.34906 -10.191589z" fill-rule="evenodd"/><path fill="#8e7cc3" d="m561.8583 416.07086l-7.2125854 23.67453l23.517029 12.073517z" fill-rule="evenodd"/><path stroke="#000000" stroke-width="1.0" stroke-linejoin="round" stroke-linecap="butt" d="m561.8583 416.07086l-7.2125854 23.67453l23.517029 12.073517z" fill-rule="evenodd"/><path fill="#3c78d8" d="m533.79004 479.72702l-8.937012 15.367462l19.913391 19.59845z" fill-rule="evenodd"/><path stroke="#000000" stroke-width="1.0" stroke-linejoin="round" stroke-linecap="butt" d="m533.79004 479.72702l-8.937012 15.367462l19.913391 19.59845z" fill-rule="evenodd"/><path fill="#a64d79" d="m623.3202 472.8294l-20.853027 31.202087l19.913391 -6.272949z" fill-rule="evenodd"/><path stroke="#000000" stroke-width="1.0" stroke-linejoin="round" stroke-linecap="butt" d="m623.3202 472.8294l-20.853027 31.202087l19.913391 -6.272949z" fill-rule="evenodd"/><path fill="#ff00ff" d="m672.7113 460.1286l-2.3517456 7.839905l6.2703857 3.2939758z" fill-rule="evenodd"/><path stroke="#000000" stroke-width="1.0" stroke-linejoin="round" stroke-linecap="butt" d="m672.7113 460.1286l-2.3517456 7.839905l6.2703857 3.2939758z" fill-rule="evenodd"/><path fill="#674ea7" d="m615.6378 378.7533l-9.721802 20.695526l17.246704 6.5852966z" fill-rule="evenodd"/><path stroke="#000000" stroke-width="1.0" stroke-linejoin="round" stroke-linecap="butt" d="m615.6378 378.7533l-9.721802 20.695526l17.246704 6.5852966z" fill-rule="evenodd"/><path fill="#b6d7a8" d="m673.8084 372.48032l10.503906 -7.524933l-2.0367432 18.501312z" fill-rule="evenodd"/><path stroke="#000000" stroke-width="1.0" stroke-linejoin="round" stroke-linecap="butt" d="m673.8084 372.48032l10.503906 -7.524933l-2.0367432 18.501312z" fill-rule="evenodd"/><path fill="#a2ff79" d="m607.7979 310.0761l3.6062622 25.40158l13.955383 -7.5275574z" fill-rule="evenodd"/><path stroke="#000000" stroke-width="1.0" stroke-linejoin="round" stroke-linecap="butt" d="m607.7979 310.0761l3.6062622 25.40158l13.955383 -7.5275574z" fill-rule="evenodd"/><path fill="#00ff00" d="m667.53546 293.4567l2.1968384 20.695526l20.54065 -15.677155z" fill-rule="evenodd"/><path stroke="#000000" stroke-width="1.0" stroke-linejoin="round" stroke-linecap="butt" d="m667.53546 293.4567l2.1968384 20.695526l20.54065 -15.677155z" fill-rule="evenodd"/><path fill="#00ff00" d="m622.0656 253.16011l-4.2335815 22.26509l19.286072 16.776886z" fill-rule="evenodd"/><path stroke="#000000" stroke-width="1.0" stroke-linejoin="round" stroke-linecap="butt" d="m622.0656 253.16011l-4.2335815 22.26509l19.286072 16.776886z" fill-rule="evenodd"/><path fill="#a2ff79" d="m660.95013 233.71654l-9.406799 20.54068l20.070862 3.2939606z" fill-rule="evenodd"/><path stroke="#000000" stroke-width="1.0" stroke-linejoin="round" stroke-linecap="butt" d="m660.95013 233.71654l-9.406799 20.54068l20.070862 3.2939606z" fill-rule="evenodd"/><path fill="#6aa84f" d="m609.52234 205.49606l-7.682434 19.59842l27.280823 7.3700867z" fill-rule="evenodd"/><path stroke="#000000" stroke-width="1.0" stroke-linejoin="round" stroke-linecap="butt" d="m609.52234 205.49606l-7.682434 19.59842l27.280823 7.3700867z" fill-rule="evenodd"/><path fill="#6aa84f" d="m569.6982 337.3596l-10.349121 32.141724l17.716553 -10.818909z" fill-rule="evenodd"/><path stroke="#000000" stroke-width="1.0" stroke-linejoin="round" stroke-linecap="butt" d="m569.6982 337.3596l-10.349121 32.141724l17.716553 -10.818909z" fill-rule="evenodd"/><path fill="#a4c2f4" d="m511.6824 389.4147l16.776886 -17.561676l-3.4487915 32.614166z" fill-rule="evenodd"/><path stroke="#000000" stroke-width="1.0" stroke-linejoin="round" stroke-linecap="butt" d="m511.6824 389.4147l16.776886 -17.561676l-3.4487915 32.614166z" fill-rule="evenodd"/><defs><linearGradient id="p.1" gradientUnits="userSpaceOnUse" gradientTransform="matrix(26.35085817018166 0.0 0.0 26.35085817018166 0.0 0.0)" spreadMethod="pad" x1="-0.5288020206720245" y1="13.661363048100752" x2="18.104035871648083" y2="32.29426616016435"><stop offset="0.0" stop-color="#ff0000"/><stop offset="0.17" stop-color="#ff4d00"/><stop offset="0.24" stop-color="#ff9900"/><stop offset="0.38" stop-color="#ffff00"/><stop offset="0.48" stop-color="#00ff00"/><stop offset="0.6" stop-color="#00ffbe"/><stop offset="0.7" stop-color="#4a86e8"/><stop offset="0.78" stop-color="#0000ff"/><stop offset="0.85" stop-color="#9900ff"/><stop offset="1.0" stop-color="#9900ff"/></linearGradient></defs><path fill="url(#p.1)" d="m231.56168 359.9895l0 0c0 -135.58372 109.91232 -245.49606 245.49606 -245.49606l0 0c65.10962 0 127.55249 25.864685 173.59192 71.90413c46.03943 46.039444 71.904175 108.482315 71.904175 173.59193l0 0c0 135.58374 -109.91235 245.49603 -245.4961 245.49603l0 0c-135.58374 0 -245.49606 -109.91229 -245.49606 -245.49603zm18.048874 0l0 0c0 125.6156 101.83159 227.4472 227.44719 227.4472c125.6156 0 227.4472 -101.831604 227.4472 -227.4472l0 0c0 -125.615616 -101.831604 -227.44719 -227.4472 -227.44719l0 0c-125.6156 0 -227.44719 101.83157 -227.44719 227.44719z" fill-rule="evenodd"/><path stroke="#000000" stroke-width="1.0" stroke-linejoin="round" stroke-linecap="butt" d="m231.56168 359.9895l0 0c0 -135.58372 109.91232 -245.49606 245.49606 -245.49606l0 0c65.10962 0 127.55249 25.864685 173.59192 71.90413c46.03943 46.039444 71.904175 108.482315 71.904175 173.59193l0 0c0 135.58374 -109.91235 245.49603 -245.4961 245.49603l0 0c-135.58374 0 -245.49606 -109.91229 -245.49606 -245.49603zm18.048874 0l0 0c0 125.6156 101.83159 227.4472 227.44719 227.4472c125.6156 0 227.4472 -101.831604 227.4472 -227.4472l0 0c0 -125.615616 -101.831604 -227.44719 -227.4472 -227.44719l0 0c-125.6156 0 -227.44719 101.83157 -227.44719 227.44719z" fill-rule="evenodd"/></g></svg>